<svg width="61" height="58" viewBox="0 0 61 58" fill="none" xmlns="http://www.w3.org/2000/svg">
<path fill-rule="evenodd" clip-rule="evenodd" d="M42.3011 44.5367C42.6715 45.3429 43.0277 46.4706 43.3391 47.2995C43.3385 47.2995 39.5594 47.8432 37.9258 47.8808C35.4002 47.9392 32.0094 47.7513 29.5261 47.3057C27.2662 46.9001 24.2662 46.1189 22.1966 45.158C20.4029 44.3252 18.1622 42.8724 16.7167 41.5564C15.1928 40.1687 13.46 37.9911 12.4718 36.2123C11.5892 34.6237 10.7547 32.3129 10.4338 30.5393C10.2222 29.3693 10.1773 27.7605 10.3327 26.5825C10.4693 25.5477 10.8542 24.1815 11.3083 23.2336C11.6109 22.6021 12.1379 21.8059 12.6253 21.2917C12.9257 20.9746 13.4316 20.6579 13.777 20.3863C14.5249 20.1101 15.4882 19.6355 16.2697 19.4657C17.1056 19.2843 18.2664 19.1674 19.1183 19.2581C20.0817 19.3609 21.3449 19.7486 22.2034 20.1803C23.7898 20.978 25.5311 22.6189 26.8202 23.8117C28.0819 24.979 29.5708 26.7174 30.6872 28.0138C32.4496 30.0603 34.7084 32.8637 36.3033 35.0329C37.5844 36.7753 39.2133 39.1551 40.3367 40.9948C40.9708 42.0333 41.795 43.4354 42.3011 44.5367Z" fill="#D2DDDF"/>
<path fill-rule="evenodd" clip-rule="evenodd" d="M17.7678 42.5332C19.8941 43.2743 22.6594 44.4827 24.8556 45.0036C26.4576 45.3836 28.6502 45.7617 30.3004 45.7542C31.7365 45.7477 33.7353 45.6629 35.0347 45.0763C35.6556 44.796 36.4199 44.2267 36.7956 43.6759C37.5295 42.6003 37.7462 40.7932 37.8473 39.5114C37.9541 38.1563 37.5553 36.3528 37.4302 34.9991C37.9217 35.917 38.5423 37.1585 39.0685 38.0584C40.0629 39.7586 41.7892 41.812 42.6252 43.589C43.1747 44.757 43.9636 47.6622 43.9638 47.6628C41.8381 47.7978 39.0081 48.0793 36.878 48.113C35.2627 48.1384 33.0994 48.1398 31.4954 47.9553C29.1465 47.6852 25.9696 47.2263 23.7911 46.3413C21.7982 45.532 17.7684 42.5336 17.7678 42.5332Z" fill="#6B7E8F"/>
<path fill-rule="evenodd" clip-rule="evenodd" d="M36.5584 34.5927C36.2187 34.2225 35.766 33.7289 35.4263 33.3588C35.0563 34.3932 34.8144 35.8901 34.193 36.807C33.7612 37.444 32.9322 38.118 32.2898 38.5625C31.5342 39.0854 30.4105 39.6332 29.5341 39.9365C28.1886 40.402 26.2877 40.737 24.8623 40.8499C23.4604 40.961 21.5678 40.8869 20.1764 40.6887C18.8671 40.5021 17.1422 40.0742 15.9103 39.6102C15.1029 39.306 14.1164 38.7114 13.3477 38.3262C14.1264 39.2971 15.9435 41.5621 15.9438 41.5624C17.2521 41.858 18.9752 42.358 20.3047 42.5476C21.6688 42.7421 23.5157 42.9069 24.8923 42.8272C26.4491 42.737 28.5445 42.4363 30 41.8989C31.3128 41.4141 32.9711 40.4786 34.0124 39.5712C34.6637 39.0037 35.4154 38.1008 35.8041 37.3435C36.1968 36.5778 36.5582 34.593 36.5584 34.5927Z" fill="#6B7E8F"/>
<path fill-rule="evenodd" clip-rule="evenodd" d="M11.24 33.9973C12.1225 34.3248 13.2839 34.8018 14.1815 35.0888C15.323 35.4539 16.8663 35.8905 18.045 36.1229C19.3151 36.3735 21.033 36.6406 22.3293 36.6704C23.4346 36.6958 24.9325 36.6509 26.0025 36.3841C27.2424 36.075 28.8919 35.4495 29.8796 34.6667C30.6421 34.0624 31.4161 32.98 31.8369 32.1212C32.1813 31.4181 32.3059 30.3653 32.507 29.6127C32.8011 30.0164 33.1933 30.5546 33.4876 30.9582C33.1988 31.9138 33.0261 33.2723 32.5254 34.1434C32.1575 34.7832 31.4266 35.4917 30.8659 35.9862C30.4137 36.3852 29.7623 36.8808 29.2152 37.1491C28.3909 37.5536 27.1753 37.8559 26.2652 38.0194C25.3182 38.1896 24.0251 38.2496 23.0616 38.238C21.9288 38.2243 20.4213 38.0591 19.3039 37.8799C17.9792 37.6674 16.2377 37.2455 14.9491 36.8818C13.9895 36.6107 11.8004 35.8298 11.8001 35.8298C11.6321 35.2799 11.2401 33.9976 11.24 33.9973Z" fill="#6B7E8F"/>
<path fill-rule="evenodd" clip-rule="evenodd" d="M43.8808 46.8131C42.2642 46.4975 40.0803 46.1887 38.4919 45.761C36.5586 45.2403 33.9942 44.4328 32.203 43.562C30.1927 42.5844 27.71 40.9135 25.9662 39.5433C23.5861 37.6733 20.5339 34.9639 18.7271 32.575C17.5787 31.0563 16.0784 28.8804 15.6876 27.0419C15.5114 26.2133 15.6234 25.0519 15.8103 24.2255C16.0486 23.1718 16.5373 21.7417 17.249 20.9071C17.9483 20.0872 19.3834 19.5224 20.298 18.9289C18.3345 19.0914 15.4819 18.5635 13.7525 19.4708C12.7985 19.9714 11.949 21.2178 11.4075 22.1226C10.7424 23.2337 10.1638 24.8953 9.95948 26.1614C9.59395 28.4277 9.60591 31.6101 10.3241 33.7973C11.3131 36.8091 13.8689 40.5209 16.3553 42.5899C18.7114 44.5506 22.7427 46.0651 25.7474 46.8674C30.7407 48.2006 38.589 50.8776 42.9672 48.2158C43.4041 47.9502 43.8808 46.8132 43.8808 46.8131Z" fill="#5B6C7E" fill-opacity="0.301961"/>
<path fill-rule="evenodd" clip-rule="evenodd" d="M43.5067 46.6885C42.756 46.882 41.7735 47.2261 41.0044 47.3335C38.9318 47.6232 36.105 47.5695 34.0226 47.3529C32.0896 47.1518 29.5219 46.6479 27.6938 46.0126C25.7685 45.3436 23.2959 44.1453 21.6367 42.994C19.5377 41.5376 17.0289 39.1722 15.5002 37.1657C14.5932 35.9753 13.6494 34.2003 13.1001 32.8229C12.4575 31.2112 11.7454 28.9594 11.679 27.2351C11.6317 26.0043 11.9368 24.3504 12.3281 23.1775C12.6525 22.2047 13.4339 21.0433 13.9078 20.1287C13.5911 20.2663 13.1315 20.3889 12.8523 20.5874C12.1749 21.0692 11.4816 21.9697 11.0824 22.6823C10.6134 23.5196 10.2651 24.7717 10.1097 25.7106C9.82378 27.4379 9.79064 29.8206 10.1218 31.5405C10.443 33.2096 11.3258 35.3618 12.211 36.8314C13.3552 38.7308 15.31 41.0722 17.0888 42.4508C19.5429 44.3527 23.4622 46.0941 26.4675 47.0145C28.8284 47.7374 32.1532 48.1142 34.6274 48.2469C37.3027 48.3906 43.5487 47.8532 43.5495 47.8532C43.5367 47.5038 43.5067 46.6887 43.5067 46.6885Z" fill="#364254" fill-opacity="0.301961"/>
<path fill-rule="evenodd" clip-rule="evenodd" d="M10.7595 56.352C10.7942 56.0777 10.7231 55.6725 10.8749 55.4379C11.0365 55.188 11.439 54.9906 11.7322 54.9051C12.2552 54.7527 13.0194 54.829 13.554 54.9386C13.8894 55.0075 14.2796 55.2752 14.6135 55.3507C15.0428 55.4479 15.6405 55.4807 16.0804 55.4495C16.7213 55.404 17.6188 55.3054 18.1666 54.9831C18.6432 54.7027 19.1106 54.096 19.379 53.6257C19.7289 53.0128 19.9521 52.0801 20.0548 51.3883C20.1712 50.6044 20.0496 49.5407 20.0474 48.7489C20.3264 48.7481 20.9775 48.7462 20.9775 48.7462C20.9472 49.4248 20.9208 50.3303 20.8764 51.0083C20.8585 51.2826 20.8226 51.6474 20.8006 51.9215C20.7495 52.5548 20.5886 53.3995 20.6363 54.0331C20.6562 54.2983 20.6331 54.7031 20.8166 54.9023C20.956 55.0538 21.2664 55.1108 21.4756 55.1339C21.8143 55.1712 22.2589 54.979 22.5997 54.9748C23.0321 54.9695 23.659 54.9361 24.0293 55.1504C24.3028 55.3087 24.6635 55.971 24.6635 55.9711C20.4923 56.0854 10.7609 56.3519 10.7595 56.352Z" fill="#DD754E"/>
<path fill-rule="evenodd" clip-rule="evenodd" d="M26.5438 46.43C26.2454 46.6877 25.8723 47.0607 25.549 47.2893C24.9337 47.724 24.0306 48.191 23.3432 48.5111C22.7157 48.8033 21.8708 49.2171 21.1856 49.3418C20.9117 49.3915 20.5251 49.4355 20.2567 49.3634C20.0146 49.2984 19.748 49.0808 19.5486 48.9339C19.0892 48.5958 18.5481 48.0611 18.1511 47.6566C17.5176 47.0115 16.7688 46.0697 16.1765 45.3895C17.2148 45.4406 18.6019 45.4717 19.6375 45.5597C21.7191 45.7364 26.5431 46.4299 26.5438 46.43Z" fill="#687E8C"/>
<path fill-rule="evenodd" clip-rule="evenodd" d="M15.9695 57.3484C16.004 57.0742 15.933 56.669 16.0849 56.4342C16.2465 56.1845 16.649 55.987 16.9422 55.9016C17.4652 55.7491 18.2294 55.8255 18.764 55.9351C19.0992 56.0038 19.4895 56.2716 19.8233 56.3472C20.2528 56.4443 20.8504 56.4771 21.2904 56.4459C21.9312 56.4003 22.8287 56.3018 23.3765 55.9794C23.853 55.699 24.3206 55.0925 24.589 54.622C24.9389 54.0091 25.1621 53.0765 25.2647 52.3846C25.381 51.6007 25.2596 50.5371 25.2572 49.7453C25.5363 49.7445 26.1873 49.7426 26.1874 49.7426C26.1572 50.4213 26.1308 51.3267 26.0864 52.0046C26.0683 52.2789 26.0326 52.6439 26.0105 52.9178C25.9594 53.5513 25.7985 54.3958 25.8463 55.0294C25.8662 55.2946 25.8431 55.6995 26.0265 55.8988C26.166 56.0502 26.4764 56.1073 26.6855 56.1302C27.0243 56.1676 27.4689 55.9753 27.8097 55.9711C28.242 55.9658 28.869 55.9325 29.2391 56.1467C29.5127 56.3051 29.8733 56.9674 29.8735 56.9674C25.7023 57.0817 15.9709 57.3484 15.9695 57.3484Z" fill="#FF9669"/>
<path fill-rule="evenodd" clip-rule="evenodd" d="M31.7538 47.4265C31.4554 47.6842 31.0823 48.0572 30.7589 48.2857C30.1437 48.7205 29.2405 49.1874 28.5531 49.5077C27.9257 49.7998 27.0807 50.2136 26.3955 50.3382C26.1217 50.3881 25.7351 50.4319 25.4665 50.3599C25.2246 50.295 24.9579 50.0773 24.7585 49.9304C24.2992 49.5922 23.7579 49.0576 23.3609 48.6532C22.7276 48.008 21.9788 47.0662 21.3865 46.386C22.4248 46.437 23.8118 46.4683 24.8475 46.5562C26.9291 46.7329 31.7531 47.4264 31.7538 47.4265Z" fill="#7E909E"/>
<path fill-rule="evenodd" clip-rule="evenodd" d="M47.8176 42.7935C49.9549 42.8592 52.805 42.9383 54.9425 43.0004C54.9426 43.0005 55.8094 43.8493 56.181 44.2131C56.1813 44.2131 57.8485 44.3426 58.5522 44.4686C59.1904 44.5829 60.0178 44.8362 60.6458 44.9936C60.6454 44.9939 58.4178 46.9835 57.2784 47.567C56.9738 47.723 56.534 47.8758 56.1957 47.9415C55.2937 48.1169 54.0491 47.9916 53.1291 48.0131C53.1292 48.0131 54.0315 48.4286 54.4182 48.6067C54.4176 48.6067 49.6439 48.4059 47.5979 48.3165C46.0593 48.2492 44.0094 48.1104 42.4693 48.0867C38.5297 48.026 33.2678 48.6212 29.3382 48.3441C25.1637 48.0496 19.5248 47.4523 15.5828 46.1014C13.9223 45.5324 11.8117 44.4548 10.4 43.4409C9.69549 42.9349 8.887 42.1043 8.3039 41.4719C7.88377 41.0162 7.33903 40.3877 7.01269 39.866C6.22936 38.6133 5.49347 36.7756 5.02369 35.386C4.71729 34.4798 4.38875 33.2403 4.26333 32.2953C4.06612 30.8092 4.05567 28.7935 4.20269 27.302C4.41873 25.1121 5.28554 22.2754 5.78627 20.1288C6.05815 18.9628 6.39796 17.4018 6.73379 16.2514C6.84024 15.8863 7.0787 15.4226 7.13275 15.047C7.23836 14.3121 7.17607 13.2969 6.98436 12.5782C6.78138 11.8171 6.29785 10.8448 5.80785 10.2156C5.13688 9.35373 3.7512 8.64782 2.99936 7.84982C2.74522 7.58026 2.47099 7.16991 2.24463 6.87845C2.63533 5.91275 3.03525 4.57153 3.54711 3.65927C3.80882 3.19324 4.19774 2.57825 4.5894 2.2055C5.01737 1.79819 5.71667 1.38613 6.25783 1.13134C6.87915 0.838691 7.76261 0.520178 8.44967 0.439428C9.605 0.303526 11.2378 0.363297 12.3121 0.793172C13.6115 1.3129 15.0696 2.61282 15.8802 3.71706C17.1034 5.38378 17.6743 8.15792 18.2515 10.1197C18.6522 11.4815 18.861 13.3765 19.2931 14.7294C19.7073 16.0266 20.3084 17.7693 21.0436 18.9281C22.0409 20.5004 24.0206 22.1352 25.2764 23.5264C29.5572 28.2686 34.4279 35.3633 39.3454 39.4982C40.6665 40.609 42.498 42.1716 44.1742 42.6759C45.2177 42.9898 46.7245 42.7598 47.8176 42.7935Z" fill="#6B7E8F"/>
<path fill-rule="evenodd" clip-rule="evenodd" d="M7.86216 36.7511C7.48796 37.8203 6.85934 39.2007 6.42958 40.2507C6.4293 40.2502 4.7617 36.6422 4.33208 35.009C3.93436 33.4974 3.62988 31.4152 3.63126 29.8563C3.63305 27.6376 4.30113 24.7169 4.71356 22.5338C4.97169 21.1671 5.39967 19.36 5.7399 18.0099C5.95416 17.1594 6.4161 16.0598 6.51581 15.1901C6.63367 14.1606 6.7683 12.6985 6.35655 11.741C5.99446 10.8989 4.86704 10.1673 4.24791 9.47682C3.86202 9.04641 3.36557 8.45807 2.98752 8.02147C2.98738 8.0212 2.78316 6.91432 2.69556 6.43985C3.35085 5.83475 4.12882 4.9151 4.87969 4.42295C5.46196 4.04137 6.32561 3.64078 7.00539 3.46107C7.64075 3.29298 8.54289 3.13781 9.19131 3.25141C9.86793 3.37003 10.7065 3.82075 11.2419 4.23506C12.1263 4.91906 13.0839 6.12173 13.5475 7.11659C14.1666 8.44527 14.3911 10.4411 14.4127 11.8963C14.4373 13.5625 13.9661 15.77 13.5595 17.3902C13.0395 19.4613 11.7856 22.0642 11.1662 24.11C10.3731 26.7295 9.6875 30.3155 8.97031 32.955C8.65937 34.0994 8.25451 35.6299 7.86216 36.7511Z" fill="#5B6C7E"/>
<path fill-rule="evenodd" clip-rule="evenodd" d="M52.2383 44.8835C53.1143 45.0423 54.3002 45.1468 55.1838 45.2596C55.1836 45.2598 54.391 46.1441 53.9452 46.3856C52.508 47.1644 50.1942 47.2363 48.5648 47.4895C45.3047 47.996 40.9169 48.5282 37.6145 48.578C31.4231 48.6713 22.9551 48.7055 17.0451 46.9322C14.5811 46.1927 11.5135 44.5391 9.44844 43.0525C8.50572 42.3737 7.48695 41.203 6.64627 40.4104C6.56761 38.8733 6.27001 36.8217 6.38415 35.2865C6.47767 34.0293 6.81474 32.364 7.19747 31.1583C7.79514 29.2748 8.86246 26.8195 9.9515 25.1508C10.3833 24.4892 10.9693 23.5432 11.6594 23.1298C13.7038 21.9049 17.2107 21.6955 19.6031 21.9763C22.0908 22.2683 25.3644 23.5524 27.3112 25.0667C28.3491 25.8741 29.1435 27.4876 29.9625 28.5006C31.0288 29.8194 32.505 31.5368 33.6229 32.8156C35.1441 34.5556 37.1255 36.9215 38.7877 38.5384C39.8293 39.5515 41.2141 40.9432 42.4618 41.7126C43.7324 42.4961 45.6518 43.1649 47.0812 43.6326C48.5916 44.1269 50.6703 44.5993 52.2383 44.8835Z" fill="#A5B3C0"/>
<path fill-rule="evenodd" clip-rule="evenodd" d="M58.2626 46.0642C59.0021 45.9348 59.9557 45.6251 60.6812 45.4369C60.681 45.4372 58.8716 47.543 57.8272 48.0986C56.6806 48.7086 54.883 48.9568 53.5782 49.08C50.6282 49.3586 46.6809 48.5304 43.717 48.4792C40.2291 48.419 35.5811 48.8858 32.0937 48.8019C29.6486 48.7432 26.3858 48.5411 23.9638 48.2128C21.5133 47.8807 18.2076 47.4253 15.8877 46.5983C13.7382 45.8321 10.8985 44.5298 9.19402 43.0582C7.88397 41.9271 6.62 39.9583 5.77602 38.4738C5.10078 37.2861 4.34111 35.608 4.01917 34.2907C3.59821 32.5673 3.49383 30.172 3.59504 28.4045C3.70602 26.4664 4.36476 23.9337 4.80978 22.0401C5.11618 20.7371 5.68264 19.0371 6.00128 17.7368C6.24429 16.7448 6.72026 15.4292 6.71696 14.4103C6.71393 13.4594 6.47189 12.1633 6.03855 11.3082C5.47196 10.19 4.0629 9.1117 3.21631 8.17041C4.43682 8.50172 6.17263 8.68988 7.28492 9.27492C8.02067 9.66191 9.02239 10.3074 9.40732 11.0228C9.87118 11.8846 9.72403 13.2781 9.66449 14.2463C9.5883 15.4884 9.05526 17.0901 8.80153 18.3103C8.52263 19.6518 8.04034 21.425 7.89127 22.7854C7.62626 25.2027 7.56423 28.4709 7.83777 30.8873C8.04254 32.6951 8.31937 35.194 9.19388 36.8072C10.1145 38.5059 12.1158 40.34 13.7064 41.4964C15.8252 43.0367 19.1061 44.5146 21.6422 45.2793C25.7598 46.5206 31.5936 46.8799 35.9037 47.0961C39.238 47.2634 43.6948 46.9982 47.0297 46.8449C50.4046 46.6897 54.9388 46.6458 58.2626 46.0642Z" fill="#364254" fill-opacity="0.301961"/>
<path fill-rule="evenodd" clip-rule="evenodd" d="M10.9439 4.34045C10.8262 4.24782 10.6708 4.12248 10.5515 4.03183C10.4033 3.91902 10.207 3.76636 10.0507 3.66423C9.76628 3.47845 9.40006 3.17485 9.06423 3.10294C8.81999 3.05043 8.46614 3.07761 8.23236 3.16324C8.09456 3.21377 7.94645 3.34809 7.8334 3.43913C7.52095 3.69075 7.12213 4.05294 6.87376 4.36354C6.68549 4.59906 6.5074 4.96045 6.35049 5.21629C6.3498 5.31472 6.32794 5.44786 6.34816 5.54431C6.36865 5.64182 6.4242 5.76769 6.48402 5.8487C6.73487 6.18873 7.21648 6.54221 7.60663 6.72468C7.96364 6.89159 8.503 7.06695 8.89604 7.01246C9.29197 6.95744 9.77123 6.65066 10.0554 6.38057C10.4107 6.04293 10.7317 5.44759 10.8749 4.9879C10.9332 4.8008 10.9439 4.34045 10.9439 4.34045Z" fill="#CCD3D9"/>
<path fill-rule="evenodd" clip-rule="evenodd" d="M8.59358 3.51109C9.49243 3.49011 10.2352 4.16897 10.2569 5.03136C10.2788 5.89374 9.57136 6.60637 8.67251 6.62722C7.77366 6.6482 7.0309 5.96948 7.00903 5.10709C6.9873 4.2447 7.69473 3.53207 8.59358 3.51109Z" fill="#FF8109" stroke="#641D00" stroke-width="0.103809" stroke-linecap="round" stroke-linejoin="round"/>
<path fill-rule="evenodd" clip-rule="evenodd" d="M8.60856 4.10174C9.179 4.08842 9.65043 4.51921 9.66432 5.06665C9.67807 5.61396 9.22906 6.06626 8.65862 6.07959C8.08803 6.09291 7.61661 5.66198 7.60285 5.11468C7.58896 4.56724 8.03797 4.11494 8.60856 4.10174Z" fill="#FFB500" stroke="#FFB500" stroke-width="0.103809" stroke-linecap="round" stroke-linejoin="round"/>
<path fill-rule="evenodd" clip-rule="evenodd" d="M8.61985 4.40756C9.02417 4.39806 9.35821 4.70339 9.36798 5.0913C9.37774 5.47909 9.05965 5.79958 8.65533 5.80908C8.25101 5.81845 7.91697 5.51326 7.90721 5.12534C7.89731 4.73743 8.21553 4.41693 8.61985 4.40756Z" fill="#010100" stroke="#010100" stroke-width="0.103809" stroke-linecap="round" stroke-linejoin="round"/>
<path fill-rule="evenodd" clip-rule="evenodd" d="M8.1255 4.2641C8.48623 4.25579 8.78452 4.52825 8.79318 4.87448C8.80199 5.2207 8.518 5.50675 8.15714 5.51507C7.79628 5.52351 7.49812 5.25104 7.48946 4.90482C7.48066 4.5586 7.76464 4.27255 8.1255 4.2641Z" fill="#FCFCFA" stroke="#FCFCFA" stroke-width="0.103809" stroke-linecap="round" stroke-linejoin="round"/>
<path fill-rule="evenodd" clip-rule="evenodd" d="M4.02711 8.71141C4.06919 8.29236 4.16051 7.73568 4.16738 7.31478C4.17467 6.86894 4.13823 6.27228 4.06603 5.83185C3.9611 5.19232 3.67078 4.36965 3.50136 3.74304C3.15026 4.2348 2.704 4.9056 2.33104 5.38232C1.78314 6.08268 0.393204 7.63211 0.393066 7.63237C0.939307 7.84018 1.65222 8.15962 2.214 8.32494C2.74677 8.4817 4.02697 8.71128 4.02711 8.71141Z" fill="#FDFDFD"/>
<path fill-rule="evenodd" clip-rule="evenodd" d="M4.20724 7.80649C3.47438 7.13767 2.49742 6.24585 1.76456 5.57703C1.23523 6.20495 0.000137523 7.67006 0 7.67033C0.290174 7.83578 0.65832 8.09123 0.967059 8.22199C1.82809 8.58655 3.9905 9.02328 3.99078 9.02341C4.05569 8.65832 4.20724 7.80662 4.20724 7.80649Z" fill="#5A6265"/>
<path fill-rule="evenodd" clip-rule="evenodd" d="M4.23883 7.76074C3.02629 7.70347 1.40943 7.62721 0.196893 7.56995C0.175439 7.64054 0.125244 7.80547 0.125244 7.80547C0.391488 7.94282 0.733369 8.15195 1.0124 8.26332C1.90754 8.62062 4.12523 9.09456 4.1255 9.0947C4.15947 8.69451 4.23883 7.761 4.23883 7.76074Z" fill="#22272B"/>
<path fill-rule="evenodd" clip-rule="evenodd" d="M44.66 41.3191C45.1568 42.0601 45.6916 43.1208 46.1339 43.8929C46.1334 43.8931 42.4886 44.9951 40.881 45.2765C38.3958 45.7115 35.0159 46.0328 32.4907 45.9638C30.1924 45.901 27.1021 45.5777 24.9018 44.9379C22.9947 44.3835 20.5454 43.2834 18.904 42.1994C17.1734 41.0565 15.1082 39.1646 13.8431 37.5551C12.7134 36.118 11.5138 33.96 10.9088 32.256C10.5098 31.1319 10.2043 29.5495 10.1664 28.3627C10.1333 27.3201 10.2917 25.913 10.5863 24.9089C10.7825 24.2398 11.1739 23.3745 11.5718 22.7938C11.8173 22.4356 12.2653 22.0473 12.5625 21.7273C13.2564 21.3427 14.131 20.7298 14.8754 20.4454C15.6716 20.1411 16.7993 19.8521 17.6554 19.8145C18.6238 19.7721 19.9344 19.9661 20.8527 20.2643C22.5492 20.8151 24.5355 22.1757 26.0026 23.1612C27.4385 24.1257 29.1915 25.6202 30.5049 26.734C32.578 28.492 35.2644 30.9236 37.192 32.828C38.7406 34.3576 40.7359 36.4647 42.1444 38.1142C42.9394 39.0452 43.9811 40.307 44.66 41.3191Z" fill="#D2DDDF"/>
<path fill-rule="evenodd" clip-rule="evenodd" d="M20.1011 43.0072C22.3218 43.4214 25.2495 44.2017 27.5035 44.3879C29.1476 44.5238 31.3748 44.5697 33.0036 44.3156C34.4211 44.0944 36.3819 43.7119 37.5701 42.9382C38.1379 42.5685 38.8003 41.892 39.0821 41.2918C39.6324 40.1196 39.553 38.3022 39.4446 37.0209C39.3302 35.6664 38.6433 33.9445 38.2999 32.6261C38.9344 33.4592 39.7491 34.5929 40.415 35.4031C41.6733 36.934 43.7121 38.7043 44.8263 40.3346C45.5588 41.4061 46.81 44.158 46.8101 44.1584C44.7323 44.6096 41.9826 45.3106 39.884 45.6623C38.2925 45.929 36.1559 46.2536 34.5415 46.3111C32.1774 46.3956 28.9648 46.4171 26.6692 45.8686C24.5692 45.3669 20.1016 43.0075 20.1011 43.0072Z" fill="#6B7E8F"/>
<path fill-rule="evenodd" clip-rule="evenodd" d="M37.3727 32.3548C36.9772 32.0399 36.4498 31.62 36.0543 31.3051C35.8566 32.3822 35.8608 33.8971 35.3958 34.8957C35.0728 35.5896 34.3633 36.3791 33.801 36.9143C33.1395 37.5436 32.1186 38.2527 31.302 38.6833C30.0485 39.3442 28.2254 39.9593 26.8356 40.284C25.4688 40.6032 23.5873 40.8128 22.1807 40.825C20.8573 40.8365 19.0838 40.6717 17.7915 40.3973C16.9446 40.2176 15.8736 39.7777 15.0518 39.5121C15.9787 40.3547 18.1414 42.3206 18.1416 42.3208C19.4819 42.4173 21.2653 42.6536 22.6093 42.6421C23.9883 42.6304 25.8395 42.5172 27.1862 42.2326C28.7093 41.9107 30.7305 41.3005 32.081 40.5521C33.299 39.8771 34.7851 38.705 35.6663 37.6532C36.2175 36.9952 36.8135 35.9909 37.0744 35.1847C37.3381 34.3697 37.3727 32.3551 37.3727 32.3548Z" fill="#6B7E8F"/>
<path fill-rule="evenodd" clip-rule="evenodd" d="M12.2668 35.5514C13.1917 35.7428 14.4163 36.0404 15.3496 36.1897C16.5365 36.3797 18.1318 36.5804 19.3339 36.6339C20.6292 36.6915 22.3694 36.6985 23.6547 36.5342C24.7506 36.3941 26.2229 36.1257 27.2366 35.7023C28.4112 35.2116 29.939 34.3473 30.7875 33.4264C31.4425 32.7154 32.0314 31.5306 32.3075 30.6194C32.5336 29.8734 32.4857 28.8148 32.5621 28.0414C32.9182 28.3962 33.3931 28.8692 33.7493 29.224C33.6192 30.2109 33.6691 31.5787 33.316 32.514C33.0566 33.2009 32.4496 34.0101 31.9761 34.5824C31.594 35.0441 31.0312 35.631 30.5344 35.9778C29.7858 36.5006 28.6341 36.9809 27.7617 37.2784C26.8538 37.5881 25.5862 37.8408 24.6328 37.9732C23.5115 38.1289 21.9955 38.1911 20.8627 38.1812C19.5195 38.1693 17.7309 38.0129 16.399 37.846C15.4072 37.7219 13.118 37.2777 13.1176 37.2776C12.8623 36.7597 12.267 35.5515 12.2668 35.5514Z" fill="#6B7E8F"/>
<path fill-rule="evenodd" clip-rule="evenodd" d="M46.5898 43.3315C44.9418 43.2613 42.7345 43.2828 41.0959 43.0977C39.1017 42.8725 36.4375 42.4582 34.5267 41.8656C32.3822 41.2006 29.6584 39.9211 27.7136 38.8284C25.0588 37.3369 21.604 35.1169 19.4314 33.0272C18.0502 31.6986 16.215 29.7737 15.5304 28.0161C15.2218 27.2239 15.1438 26.0598 15.1943 25.2155C15.2585 24.1391 15.5092 22.6533 16.0767 21.7227C16.6342 20.8082 17.96 20.0358 18.7673 19.3129C16.8539 19.767 13.9504 19.6719 12.3897 20.8265C11.5285 21.4636 10.8918 22.8218 10.5038 23.7965C10.0273 24.9935 9.72543 26.7212 9.72928 28.0025C9.73616 30.2957 10.2648 33.4374 11.3294 35.4906C12.7954 38.3177 15.9228 41.6022 18.7148 43.2744C21.3606 44.8589 25.5883 45.7524 28.6867 46.0956C33.8355 46.6661 42.0227 48.1373 45.9153 44.8537C46.3036 44.526 46.5898 43.3316 46.5898 43.3315Z" fill="#5B6C7E" fill-opacity="0.301961"/>
<path fill-rule="evenodd" clip-rule="evenodd" d="M46.2004 43.2643C45.4903 43.5677 44.5757 44.0543 43.8334 44.2756C41.833 44.8714 39.032 45.241 36.94 45.3382C34.9979 45.4286 32.3798 45.3146 30.4708 44.9603C28.4604 44.5873 25.8234 43.7732 23.9976 42.8839C21.6876 41.7591 18.8254 39.7976 16.9896 38.0442C15.9003 37.0038 14.6797 35.3915 13.9136 34.1131C13.0171 32.6172 11.948 30.4992 11.6024 28.8059C11.3558 27.5972 11.3887 25.9179 11.5847 24.7008C11.7472 23.6913 12.3304 22.4274 12.65 21.4531C12.3596 21.6364 11.9256 21.8261 11.6819 22.064C11.0909 22.6411 10.5525 23.6343 10.2739 24.3979C9.94648 25.2952 9.80566 26.5839 9.8047 27.5346C9.80277 29.2835 10.157 31.6421 10.7634 33.2916C11.3517 34.8923 12.5733 36.8861 13.6863 38.2055C15.1249 39.9108 17.436 41.9314 19.417 43.0272C22.15 44.539 26.3042 45.6734 29.4222 46.1332C31.8716 46.4945 35.217 46.3696 37.6827 46.1311C40.3485 45.873 46.4311 44.4086 46.4319 44.4084C46.3624 44.0651 46.2004 43.2645 46.2004 43.2643Z" fill="#364254" fill-opacity="0.301961"/>
</svg>
